<svg width="110" height="110" viewBox="0 0 110 110" fill="none" xmlns="http://www.w3.org/2000/svg">
<path d="M82.5007 32.816C82.2257 32.7702 81.9048 32.7702 81.6298 32.816C75.3048 32.5869 70.2632 27.4077 70.2632 20.991C70.2632 14.4369 75.534 9.16602 82.0882 9.16602C88.6423 9.16602 93.9132 14.4827 93.9132 20.991C93.8673 27.4077 88.8257 32.5869 82.5007 32.816Z" stroke="#E4361A" stroke-width="3" stroke-linecap="round" stroke-linejoin="round"/>
<path d="M77.7816 66.1834C84.0607 67.2376 90.9816 66.1376 95.8399 62.8834C102.302 58.5751 102.302 51.5168 95.8399 47.2084C90.9357 43.9543 83.9232 42.8542 77.644 43.9542" stroke="#E4361A" stroke-width="3" stroke-linecap="round" stroke-linejoin="round"/>
<path d="M27.3647 32.816C27.6397 32.7702 27.9605 32.7702 28.2355 32.816C34.5605 32.5869 39.6021 27.4077 39.6021 20.991C39.6021 14.4369 34.3313 9.16602 27.7772 9.16602C21.223 9.16602 15.9521 14.4827 15.9521 20.991C15.998 27.4077 21.0397 32.5869 27.3647 32.816Z" stroke="#E4361A" stroke-width="3" stroke-linecap="round" stroke-linejoin="round"/>
<path d="M32.0854 66.1834C25.8062 67.2376 18.8854 66.1376 14.0271 62.8834C7.56455 58.5751 7.56455 51.5168 14.0271 47.2084C18.9312 43.9543 25.9437 42.8542 32.2229 43.9542" stroke="#E4361A" stroke-width="3" stroke-linecap="round" stroke-linejoin="round"/>
<path d="M55.0002 67.0524C54.7252 67.0065 54.4044 67.0065 54.1294 67.0524C47.8044 66.8232 42.7627 61.644 42.7627 55.2274C42.7627 48.6732 48.0335 43.4023 54.5877 43.4023C61.1419 43.4023 66.4127 48.719 66.4127 55.2274C66.3669 61.644 61.3252 66.869 55.0002 67.0524Z" stroke="#E4361A" stroke-width="3" stroke-linecap="round" stroke-linejoin="round"/>
<path d="M41.6613 81.4885C35.1988 85.7968 35.1988 92.8551 41.6613 97.1635C48.9947 102.068 61.003 102.068 68.3363 97.1635C74.7988 92.8551 74.7988 85.7968 68.3363 81.4885C61.0488 76.6301 48.9947 76.6301 41.6613 81.4885Z" stroke="#E4361A" stroke-width="3" stroke-linecap="round" stroke-linejoin="round"/>
</svg>
