<svg width="135" height="135" viewBox="0 0 135 135" fill="none" xmlns="http://www.w3.org/2000/svg">
<path d="M23.9609 61.99V89.9463C23.9609 100.184 23.9609 100.184 33.6359 106.709L60.2422 122.065C64.2359 124.371 70.7609 124.371 74.7547 122.065L101.361 106.709C111.036 100.184 111.036 100.184 111.036 89.9463V61.99C111.036 51.7525 111.036 51.7525 101.361 45.2275L74.7547 29.8713C70.7609 27.565 64.2359 27.565 60.2422 29.8713L33.6359 45.2275C23.9609 51.7525 23.9609 51.7525 23.9609 61.99Z" stroke="#E4361A" stroke-width="3" stroke-linecap="round" stroke-linejoin="round"/>
<path d="M98.4375 42.9187V28.125C98.4375 16.875 92.8125 11.25 81.5625 11.25H53.4375C42.1875 11.25 36.5625 16.875 36.5625 28.125V42.525" stroke="#E4361A" stroke-width="3" stroke-linecap="round" stroke-linejoin="round"/>
<path d="M71.0428 61.8191L74.249 66.8254C74.7553 67.6129 75.8803 68.4004 76.724 68.6254L82.4615 70.0879C86.0053 70.9879 86.9615 74.0254 84.6553 76.8379L80.8865 81.3941C80.324 82.1254 79.874 83.4191 79.9303 84.3191L80.2678 90.2254C80.4928 93.8816 77.9053 95.7379 74.5303 94.3879L69.0178 92.1941C68.174 91.8566 66.7678 91.8566 65.924 92.1941L60.4115 94.3879C57.0365 95.7379 54.449 93.8254 54.674 90.2254L55.0115 84.3191C55.0678 83.4191 54.6178 82.0691 54.0553 81.3941L50.2865 76.8379C47.9803 74.0254 48.9365 70.9879 52.4803 70.0879L58.2178 68.6254C59.1178 68.4004 60.2428 67.5566 60.6928 66.8254L63.899 61.8191C65.924 58.7816 69.074 58.7816 71.0428 61.8191Z" stroke="#E4361A" stroke-width="3" stroke-linecap="round" stroke-linejoin="round"/>
</svg>
