<svg width="111" height="111" viewBox="0 0 111 111" fill="none" xmlns="http://www.w3.org/2000/svg">
<path d="M55.5 55.5C68.2716 55.5 78.625 45.1466 78.625 32.375C78.625 19.6034 68.2716 9.25 55.5 9.25C42.7284 9.25 32.375 19.6034 32.375 32.375C32.375 45.1466 42.7284 55.5 55.5 55.5Z" stroke="#E4361A" stroke-width="3" stroke-linecap="round" stroke-linejoin="round"/>
<path d="M15.772 101.75C15.772 83.8513 33.5782 69.375 55.5007 69.375C59.9407 69.375 64.242 69.9762 68.2658 71.0862" stroke="#E4361A" stroke-width="3" stroke-linecap="round" stroke-linejoin="round"/>
<path d="M101.75 83.25C101.75 86.7188 100.779 90.0025 99.0676 92.7775C98.0963 94.4425 96.8475 95.9225 95.4138 97.125C92.1763 100.039 87.9212 101.75 83.25 101.75C76.4975 101.75 70.6237 98.1425 67.4324 92.7775C65.7212 90.0025 64.75 86.7188 64.75 83.25C64.75 77.4225 67.4325 72.1963 71.6875 68.82C74.8787 66.2763 78.9025 64.75 83.25 64.75C93.4713 64.75 101.75 73.0287 101.75 83.25Z" stroke="#E4361A" stroke-width="3" stroke-miterlimit="10" stroke-linecap="round" stroke-linejoin="round"/>
<path d="M76.0366 83.2473L80.6153 87.826L90.4666 78.7148" stroke="#E4361A" stroke-width="3" stroke-linecap="round" stroke-linejoin="round"/>
</svg>
