<svg width="119" height="121" viewBox="0 0 119 121" fill="none" xmlns="http://www.w3.org/2000/svg">
<path d="M103.522 35.2913V85.708C103.522 100.833 96.1275 110.916 78.8738 110.916H39.4367C22.183 110.916 14.7886 100.833 14.7886 85.708V35.2913C14.7886 20.1663 22.183 10.083 39.4367 10.083H78.8738C96.1275 10.083 103.522 20.1663 103.522 35.2913Z" stroke="#E4361A" stroke-width="3" stroke-miterlimit="10" stroke-linecap="round" stroke-linejoin="round"/>
<path d="M76.4088 10.083V49.7104C76.4088 51.9288 73.8452 53.0379 72.2678 51.5758L60.8313 40.7869C59.8946 39.8794 58.4155 39.8794 57.4789 40.7869L46.0424 51.5758C44.4649 53.0379 41.9014 51.9288 41.9014 49.7104V10.083H76.4088Z" stroke="#E4361A" stroke-width="3" stroke-miterlimit="10" stroke-linecap="round" stroke-linejoin="round"/>
<path d="M65.3174 70.583H86.2683" stroke="#E4361A" stroke-width="3" stroke-miterlimit="10" stroke-linecap="round" stroke-linejoin="round"/>
<path d="M44.3662 90.75H86.2681" stroke="#E4361A" stroke-width="3" stroke-miterlimit="10" stroke-linecap="round" stroke-linejoin="round"/>
</svg>
