<svg width="74" height="26" viewBox="0 0 74 26" fill="none" xmlns="http://www.w3.org/2000/svg">
<g clip-path="url(#clip0_1_1817)">
<path d="M44.1843 15.1955L44.1913 20.7308C43.0671 21.1412 41.8114 21.3453 40.4219 21.3453C37.9621 21.3453 36.1642 20.6459 35.0282 19.2495C33.8922 17.8531 33.3242 15.7321 33.3242 12.8842C33.3242 10.1923 33.9298 8.124 35.1409 6.67255C36.352 5.22568 38.1804 4.5011 40.6284 4.5011C42.7056 4.5011 44.7452 5.07664 46.745 6.23L49.0334 2.34571C47.7988 1.57756 46.4469 0.992857 44.9776 0.596172C43.5083 0.199488 41.9733 0 40.3726 0C37.9316 0 35.7535 0.449422 33.8382 1.34597C31.923 2.24482 30.4021 3.67334 29.2731 5.63612C28.1441 7.59661 27.5785 10.0914 27.5785 13.1158C27.5785 17.0643 28.576 20.1988 30.5711 22.5193C32.5637 24.8398 35.7018 26 39.9783 26C41.579 26 43.1469 25.812 44.6819 25.4428C46.2169 25.0713 47.8645 24.4477 49.6225 23.5786V15.1978H44.1843V15.1955Z" fill="black"/>
<path d="M14.8572 4.42314H23.7715L26.3768 0H9.42596V25.9885H14.8572V15.1886H22.2224L24.8042 10.8045H14.8572V4.42314Z" fill="black"/>
<path d="M71.0091 19.6531C70.0562 20.1896 69.1478 20.6092 68.2771 20.9027C67.4063 21.1985 66.39 21.3453 65.2305 21.3453C62.9609 21.3453 61.2076 20.6276 59.9683 19.1899C58.729 17.7545 58.107 15.6518 58.107 12.8842C58.107 7.32146 60.3368 4.53779 64.7963 4.53779C66.9862 4.53779 69.0164 5.12938 70.8917 6.30796L72.9877 2.27004C71.6499 1.4996 70.312 0.930946 68.9718 0.559485C67.634 0.188024 66.1647 0 64.5639 0C62.2802 0 60.2265 0.431079 58.4004 1.28865C56.5767 2.14851 55.1145 3.55869 54.0113 5.51918C52.9082 7.47967 52.3566 10.0363 52.3566 13.1915C52.3566 17.0895 53.3471 20.1988 55.3304 22.5193C57.3114 24.8398 60.4401 26 64.7188 26C66.2421 26 67.6785 25.789 69.0305 25.3648C70.3824 24.9429 71.7672 24.3215 73.1849 23.5007L71.0091 19.6553V19.6531Z" fill="black"/>
<path d="M5.82083 0H0V1.31387H5.82083V0Z" fill="url(#paint0_linear_1_1817)"/>
<path d="M5.82083 3.08594H0V4.39981H5.82083V3.08594Z" fill="url(#paint1_linear_1_1817)"/>
<path d="M5.82083 6.16992H0V7.48379H5.82083V6.16992Z" fill="url(#paint2_linear_1_1817)"/>
<path d="M5.82083 9.25684H0V10.5707H5.82083V9.25684Z" fill="url(#paint3_linear_1_1817)"/>
<path d="M5.82083 12.3428H0V13.6566H5.82083V12.3428Z" fill="url(#paint4_linear_1_1817)"/>
<path d="M5.82083 15.4268H0V16.7406H5.82083V15.4268Z" fill="url(#paint5_linear_1_1817)"/>
<path d="M5.82083 18.5134H0V19.8273H5.82083V18.5134Z" fill="url(#paint6_linear_1_1817)"/>
<path d="M5.82083 21.5999H0V22.9137H5.82083V21.5999Z" fill="url(#paint7_linear_1_1817)"/>
<path d="M5.82083 24.6838H0V25.9977H5.82083V24.6838Z" fill="url(#paint8_linear_1_1817)"/>
</g>
<defs>
<linearGradient id="paint0_linear_1_1817" x1="0" y1="0.65579" x2="5.82083" y2="0.65579" gradientUnits="userSpaceOnUse">
<stop stop-color="#E4361A"/>
<stop offset="1" stop-color="#E4361A"/>
</linearGradient>
<linearGradient id="paint1_linear_1_1817" x1="0" y1="3.74173" x2="0.234711" y2="3.74173" gradientUnits="userSpaceOnUse">
<stop stop-color="#E4361A"/>
<stop offset="1" stop-color="#E4361A"/>
</linearGradient>
<linearGradient id="paint2_linear_1_1817" x1="0" y1="6.828" x2="0.234711" y2="6.828" gradientUnits="userSpaceOnUse">
<stop stop-color="#E4361A"/>
<stop offset="1" stop-color="#E4361A"/>
</linearGradient>
<linearGradient id="paint3_linear_1_1817" x1="0" y1="9.91263" x2="0.234711" y2="9.91263" gradientUnits="userSpaceOnUse">
<stop stop-color="#E4361A"/>
<stop offset="1" stop-color="#E4361A"/>
</linearGradient>
<linearGradient id="paint4_linear_1_1817" x1="0" y1="12.9986" x2="0.234711" y2="12.9986" gradientUnits="userSpaceOnUse">
<stop stop-color="#E4361A"/>
<stop offset="1" stop-color="#E4361A"/>
</linearGradient>
<linearGradient id="paint5_linear_1_1817" x1="0" y1="16.0848" x2="0.234711" y2="16.0848" gradientUnits="userSpaceOnUse">
<stop stop-color="#E4361A"/>
<stop offset="1" stop-color="#E4361A"/>
</linearGradient>
<linearGradient id="paint6_linear_1_1817" x1="0" y1="19.1692" x2="0.234711" y2="19.1692" gradientUnits="userSpaceOnUse">
<stop stop-color="#E4361A"/>
<stop offset="1" stop-color="#E4361A"/>
</linearGradient>
<linearGradient id="paint7_linear_1_1817" x1="0" y1="22.2556" x2="0.234711" y2="22.2556" gradientUnits="userSpaceOnUse">
<stop stop-color="#E4361A"/>
<stop offset="1" stop-color="#E4361A"/>
</linearGradient>
<linearGradient id="paint8_linear_1_1817" x1="0" y1="25.3419" x2="0.234711" y2="25.3419" gradientUnits="userSpaceOnUse">
<stop stop-color="#E4361A"/>
<stop offset="1" stop-color="#E4361A"/>
</linearGradient>
<clipPath id="clip0_1_1817">
<rect width="73.1852" height="26" fill="white"/>
</clipPath>
</defs>
</svg>
