<svg width="51" height="51" viewBox="0 0 51 51" fill="none" xmlns="http://www.w3.org/2000/svg">
<path d="M39.6261 19.1124C39.6261 22.1327 38.7304 24.9032 37.189 27.2153C34.9393 30.5482 31.3774 32.9019 27.2321 33.506C26.5239 33.631 25.7949 33.6935 25.045 33.6935C24.2951 33.6935 23.566 33.631 22.8578 33.506C18.7126 32.9019 15.1507 30.5482 12.901 27.2153C11.3596 24.9032 10.4639 22.1327 10.4639 19.1124C10.4639 11.0511 16.9837 4.53125 25.045 4.53125C33.1063 4.53125 39.6261 11.0511 39.6261 19.1124Z" stroke="#D02102" stroke-width="1.97338" stroke-linecap="round" stroke-linejoin="round"/>
<path d="M44.3128 38.8407L40.8758 39.653C40.1051 39.8405 39.5011 40.4238 39.3344 41.1945L38.6054 44.2566C38.2096 45.923 36.0849 46.4229 34.9809 45.1106L25.0449 33.6956L15.1089 45.1314C14.0049 46.4437 11.8803 45.9438 11.4845 44.2773L10.7554 41.2153C10.568 40.4446 9.96388 39.8405 9.214 39.6739L5.77702 38.8615C4.19393 38.4866 3.63151 36.5077 4.77717 35.362L12.9009 27.2383C15.1506 30.5711 18.7126 32.925 22.8578 33.529C23.566 33.654 24.295 33.7165 25.0449 33.7165C25.7948 33.7165 26.5239 33.654 27.2321 33.529C31.3773 32.925 34.9392 30.5711 37.1889 27.2383L45.3127 35.362C46.4583 36.4869 45.8959 38.4658 44.3128 38.8407Z" stroke="#D02102" stroke-width="1.97338" stroke-linecap="round" stroke-linejoin="round"/>
<path d="M26.2528 12.8202L27.4818 15.2781C27.6484 15.6114 28.0858 15.9447 28.4816 16.0072L30.7104 16.3821C32.1269 16.6112 32.4602 17.6528 31.4395 18.6734L29.7106 20.4023C29.419 20.6939 29.2523 21.2564 29.3565 21.673L29.8564 23.8185C30.2522 25.5057 29.3565 26.1723 27.8567 25.2766L25.7737 24.0476C25.3987 23.8185 24.7738 23.8185 24.3989 24.0476L22.3159 25.2766C20.8161 26.1514 19.9204 25.5057 20.3162 23.8185L20.8161 21.673C20.8994 21.2772 20.7536 20.6939 20.462 20.4023L18.7331 18.6734C17.7124 17.6528 18.0457 16.6321 19.4621 16.3821L21.691 16.0072C22.0659 15.9447 22.5033 15.6114 22.67 15.2781L23.899 12.8202C24.503 11.487 25.5862 11.487 26.2528 12.8202Z" stroke="#D02102" stroke-width="1.97338" stroke-linecap="round" stroke-linejoin="round"/>
</svg>
