<svg width="87" height="87" viewBox="0 0 87 87" fill="none" xmlns="http://www.w3.org/2000/svg">
<path d="M43.9085 73.3468C27.2303 73.3468 13.6851 59.8323 13.6851 43.1541C13.6851 26.4759 27.2303 12.9307 43.9085 12.9307C60.5867 12.9307 74.1012 26.4759 74.1012 43.1541C74.1012 59.8323 60.5867 73.3468 43.9085 73.3468Z" fill="url(#paint0_radial_1_1752)"/>
<path d="M0.751953 43.1237C0.751953 19.3197 20.0716 0 43.8757 0C67.7104 0 86.9994 19.3197 86.9994 43.1237C86.9994 66.9585 67.6797 86.2474 43.8757 86.2474C20.0716 86.2781 0.751953 66.9585 0.751953 43.1237ZM21.2081 20.4561C15.403 26.2919 11.8093 34.2778 11.8093 43.1544C11.8093 52.031 15.403 60.0169 21.2081 65.8527C27.0132 71.6578 35.0298 75.2515 43.9064 75.2515C52.783 75.2515 60.7688 71.6578 66.6047 65.8527C72.4098 60.0169 76.0034 52.031 76.0034 43.1544C76.0034 34.2778 72.4098 26.2919 66.6047 20.4561C60.7996 14.651 52.783 11.0574 43.9064 11.0574C35.0298 11.0574 27.0439 14.651 21.2081 20.4561Z" fill="#005941"/>
<path d="M23.3292 69.7236L18.8141 75.068L17.3091 73.778L21.8242 68.4336L23.3292 69.7236Z" fill="white"/>
<path d="M22.9012 75.2519C22.9012 75.2519 22.8704 75.3133 22.8397 75.3441C22.809 75.3748 22.8397 75.4055 22.809 75.4362C22.809 75.4362 22.809 75.4362 22.809 75.4669C22.809 75.4669 22.809 75.4669 22.809 75.4976C22.809 75.4976 22.809 75.5283 22.809 75.5591C22.809 75.5591 22.809 75.5591 22.809 75.5898C22.809 75.6819 22.7783 75.7434 22.7783 75.8355C22.7783 75.9276 22.7783 76.0198 22.8397 76.1119C22.8704 76.2041 22.9319 76.2962 23.024 76.3884C23.1162 76.4805 23.2083 76.5726 23.3619 76.6648C23.5155 76.7569 23.6383 76.8184 23.7919 76.8798C23.9147 76.9105 24.0376 76.9412 24.1605 76.9412C24.2833 76.9412 24.3755 76.9105 24.4676 76.8491C24.5598 76.8184 24.6212 76.7569 24.6519 76.6955C24.6519 76.6341 24.6519 76.5419 24.6519 76.4498C24.6519 76.3576 24.6212 76.2655 24.5598 76.1734C24.529 76.0505 24.4369 75.9584 24.3755 75.8355C24.2833 75.7126 24.1912 75.6205 24.0683 75.4976C23.6997 75.1291 23.3926 74.7912 23.1469 74.484C22.9012 74.1769 22.7476 73.9312 22.6862 73.7162C22.594 73.5012 22.594 73.2554 22.6247 73.0097C22.6554 72.764 22.7476 72.5183 22.8704 72.2419C23.0547 71.9347 23.2697 71.7197 23.5155 71.5968C23.7919 71.4433 24.0683 71.3818 24.4062 71.3818C24.7441 71.3818 25.0819 71.4433 25.4198 71.5661C25.7576 71.689 26.1262 71.8426 26.4641 72.0576C26.9555 72.3647 27.2934 72.7026 27.5698 72.979C27.8463 73.2554 27.9691 73.5626 28.0305 73.839C28.092 74.1155 28.092 74.3919 28.0305 74.6376C27.9691 74.914 27.877 75.1598 27.6927 75.4362L26.0341 74.3612C26.0341 74.3612 26.1262 74.1769 26.1262 74.0847C26.1262 73.9926 26.1262 73.9005 26.1262 73.7776C26.1262 73.6855 26.0341 73.5933 25.9726 73.5012C25.8805 73.409 25.7884 73.3169 25.6655 73.2554C25.5426 73.194 25.4505 73.1326 25.3276 73.1019C25.2355 73.1019 25.1126 73.0712 25.0205 73.1019C24.9283 73.1019 24.8669 73.1633 24.7748 73.194C24.7133 73.2247 24.6519 73.2862 24.6212 73.3476C24.6212 73.409 24.5905 73.4705 24.5905 73.5626C24.5905 73.6547 24.5905 73.7162 24.6212 73.8083C24.6212 73.9005 24.6826 73.9926 24.7441 74.0847C24.8055 74.1769 24.8976 74.2383 24.9898 74.3305C25.0512 74.3919 25.1126 74.4226 25.1433 74.484C25.2048 74.5455 25.2662 74.6069 25.3276 74.6376C25.3891 74.6683 25.4505 74.7298 25.5119 74.7912C25.5734 74.8526 25.6348 74.914 25.6962 74.9755C25.8805 75.1598 26.0648 75.3748 26.2184 75.5898C26.3719 75.8048 26.5255 76.0505 26.6177 76.2962C26.7405 76.5419 26.7712 76.7877 26.7405 77.0334C26.7405 77.3098 26.6177 77.5555 26.4334 77.832C26.2184 78.2005 25.9419 78.4463 25.6655 78.6306C25.3891 78.8148 25.0512 78.907 24.7133 78.8763C24.3755 78.8763 24.0069 78.8148 23.669 78.692C23.3312 78.5691 22.9626 78.4155 22.6247 78.1698C22.1947 77.8934 21.8261 77.617 21.5497 77.3405C21.2733 77.0641 21.089 76.7569 20.9661 76.4498C20.8433 76.1426 20.8125 75.8048 20.874 75.4976C20.9047 75.1598 21.0276 74.8219 21.2426 74.484L22.9319 75.5283L22.9012 75.2519Z" fill="white"/>
<path d="M28.5842 75.8363C28.8606 75.4677 29.1678 75.1605 29.5057 74.8841C29.8435 74.6077 30.3042 74.4541 30.8264 74.4541C31.3485 74.4541 31.9936 74.577 32.7 74.8227C33.0993 74.9763 33.4372 75.1913 33.7443 75.437C34.0515 75.6827 34.3586 75.9898 34.5736 76.3277C34.8193 76.6656 34.9422 77.0956 34.9422 77.6177C34.9422 78.1399 34.8193 78.7235 34.5736 79.3992C34.5429 79.4913 34.5122 79.5835 34.4815 79.6756C34.4507 79.7678 34.3893 79.8599 34.3586 79.9521C34.3586 80.0135 34.2972 80.0442 34.2972 80.1056C34.2972 80.1671 34.2357 80.1978 34.2357 80.2592C34.205 80.3206 34.1743 80.3514 34.1436 80.4128C34.1436 80.4435 34.0822 80.5049 34.0515 80.5356C33.8672 80.8121 33.6522 81.0271 33.4064 81.2421C33.1607 81.4571 32.8843 81.6107 32.5464 81.7642C32.2393 81.9178 31.8707 81.9793 31.4407 81.9485C31.0107 81.9485 30.55 81.8257 30.0278 81.6414C29.3521 81.3957 28.7992 81.0885 28.3999 80.7814C28.0006 80.4435 27.7242 80.0749 27.632 79.6756C27.5399 79.2763 27.4478 78.8463 27.4478 78.447C27.4478 78.0477 27.5092 77.6177 27.632 77.2184V77.157C27.632 77.157 27.6628 77.1263 27.6628 77.0956C27.847 76.6349 28.0621 76.2356 28.3385 75.8977L28.5842 75.8363ZM29.6899 78.4778C29.6899 78.7542 29.6899 79.0306 29.6899 79.2763C29.7207 79.5528 29.8435 79.7678 29.9971 79.9521C30.1507 80.1364 30.3657 80.2899 30.6421 80.3821C30.8571 80.4742 31.1028 80.5049 31.3178 80.4742C31.5328 80.4742 31.7171 80.3821 31.9014 80.2285C32.0857 80.1056 32.27 79.9214 32.4236 79.6756C32.5771 79.4299 32.7307 79.1228 32.8536 78.7849C32.9457 78.5085 33.0379 78.232 33.0686 77.9556C33.0993 77.6792 33.0686 77.4334 33.0686 77.157C33.0379 76.9113 32.9457 76.6963 32.7921 76.512C32.6386 76.3277 32.4236 76.2049 32.1471 76.082C31.8707 75.9898 31.625 75.9591 31.41 75.9898C31.195 76.0206 30.98 76.1434 30.7957 76.3277C30.6114 76.512 30.4271 76.727 30.2735 76.942C30.1199 77.157 29.9971 77.4027 29.8742 77.6792C29.7821 77.9249 29.7207 78.2013 29.6899 78.4778Z" fill="white"/>
<path d="M38.8999 82.4701C38.8999 82.4701 38.992 82.4086 39.0535 82.3779C39.1149 82.3472 39.1456 82.2858 39.2071 82.2551C39.2685 82.2244 39.2992 82.1936 39.3606 82.1322C39.4221 82.0708 39.4835 82.0401 39.5449 82.0093C39.5756 82.0093 39.6063 81.9479 39.6371 81.9172C39.6678 81.9172 39.6985 81.8558 39.7599 81.8251C39.7906 81.8251 39.8213 81.7636 39.8521 81.7329C39.8828 81.7329 39.9135 81.6715 39.9749 81.6715C40.0364 81.6101 40.1285 81.5793 40.1899 81.5179C40.2514 81.4565 40.3435 81.4258 40.4049 81.3643C40.5892 81.2415 40.7428 81.1186 40.8964 80.9958C41.0499 80.8729 41.2342 80.75 41.3878 80.6272C41.5414 80.5043 41.695 80.3815 41.8485 80.2586C42.0021 80.1357 42.1557 79.9822 42.2785 79.8286C42.34 79.7672 42.4014 79.7057 42.4321 79.6136C42.4628 79.5214 42.5243 79.46 42.555 79.3986C42.5857 79.3372 42.6164 79.245 42.6471 79.1836C42.6778 79.1221 42.6778 79.0607 42.6778 78.9686C42.6778 78.8764 42.6778 78.815 42.6778 78.7536C42.6778 78.6921 42.6164 78.6307 42.555 78.5693C42.4935 78.5078 42.4321 78.4464 42.34 78.4157C42.2478 78.385 42.125 78.3543 42.0021 78.3543C41.8792 78.3543 41.7871 78.3543 41.695 78.3543C41.6028 78.3543 41.5107 78.4157 41.4492 78.5078C41.3878 78.5693 41.3264 78.6307 41.2957 78.7229C41.2649 78.815 41.2342 78.8764 41.2342 78.9686L39.2685 78.8457C39.2992 78.5386 39.3913 78.2621 39.5449 78.0164C39.6985 77.7707 39.8828 77.5864 40.1592 77.4328C40.4049 77.2793 40.7121 77.1564 41.0499 77.095C41.3878 77.0335 41.7564 77.0028 42.1557 77.0335C42.6471 77.0335 43.0771 77.1257 43.415 77.2485C43.7529 77.3714 44.0293 77.4943 44.2136 77.6785C44.3979 77.8628 44.5207 78.0471 44.6129 78.2621C44.705 78.4771 44.7664 78.6614 44.7664 78.8764C44.7664 78.8764 44.7664 78.9071 44.7664 78.9379C44.7664 78.9379 44.7664 78.9686 44.7664 78.9993C44.7664 79.1221 44.7357 79.2757 44.6743 79.4293C44.6129 79.5829 44.5207 79.7057 44.4286 79.8593C44.3057 80.0129 44.1829 80.1665 44.06 80.32C43.9371 80.4736 43.7836 80.6272 43.5993 80.7807C43.5071 80.8729 43.3843 80.965 43.2921 81.0572C43.2 81.1493 43.0771 81.2415 42.9543 81.3336C42.8928 81.3643 42.8314 81.4258 42.8007 81.4565C42.7393 81.4872 42.6778 81.5486 42.6471 81.6101C42.5857 81.6408 42.5243 81.7022 42.4628 81.7329C42.4014 81.7636 42.34 81.8251 42.3093 81.8558C42.2171 81.9172 42.1557 81.9786 42.0635 82.0401C41.9714 82.1015 41.91 82.1629 41.8485 82.1936C41.7871 82.2244 41.695 82.2858 41.6335 82.3472C41.5721 82.4086 41.48 82.4394 41.4185 82.5008L44.5514 82.6544L44.49 83.883L38.9306 83.5758L38.992 82.3472L38.8999 82.4701Z" fill="white"/>
<path d="M50.7901 76.6338L50.9744 78.0774L49.0394 83.6061L47.2272 83.8211L49.1623 78.2924L45.5993 78.7224L45.415 77.2788L50.7901 76.6338Z" fill="white"/>
<path d="M51.894 78.2027C51.894 77.742 51.9861 77.3427 52.1704 76.9741C52.3547 76.6056 52.6004 76.2984 52.8769 76.0834C53.1533 75.8684 53.4912 75.6534 53.8598 75.5305C54.2898 75.4077 54.6891 75.3463 55.0576 75.377C55.4262 75.4077 55.7948 75.5305 56.1634 75.7455C56.5012 75.9605 56.8084 76.237 57.0848 76.6056C57.3612 76.9741 57.5762 77.4349 57.7298 77.9877C57.9141 78.5713 58.0063 79.1242 58.0063 79.5849C58.0063 80.0456 57.9141 80.4756 57.7605 80.8135C57.5763 81.1514 57.3612 81.4585 57.0541 81.6735C56.7469 81.8885 56.4091 82.0728 56.0098 82.2264C55.5491 82.38 55.0883 82.4414 54.6891 82.38C54.2898 82.3492 53.9212 82.1957 53.5833 81.9807C53.2455 81.7349 52.969 81.4278 52.7233 81.0592C52.4776 80.6906 52.2626 80.2299 52.109 79.7078C51.9247 79.1242 51.8633 78.6327 51.8633 78.172L51.894 78.2027ZM54.2898 80.0456C54.4126 80.2913 54.5355 80.5064 54.6891 80.6906C54.8119 80.8749 54.9655 80.9978 55.1191 81.0592C55.2726 81.1206 55.4262 81.1206 55.5798 81.0592C55.7948 80.9978 55.9484 80.8749 56.0712 80.7521C56.1634 80.6292 56.2248 80.4449 56.1941 80.2299C56.1941 80.0149 56.1634 79.7692 56.1019 79.4928C56.0405 79.2163 55.9484 78.9092 55.8562 78.5713C55.7641 78.2642 55.6719 77.9877 55.5491 77.742C55.4262 77.4963 55.3341 77.312 55.2112 77.1277C55.0883 76.9741 54.9655 76.8513 54.8119 76.7899C54.6583 76.7284 54.5048 76.7284 54.3512 76.7899C54.1669 76.8513 54.044 76.9434 53.9519 77.0663C53.8597 77.1891 53.7983 77.3734 53.7983 77.5884C53.7983 77.8034 53.7983 78.0492 53.829 78.2949C53.8598 78.5406 53.9212 78.817 54.0133 79.0935C54.1055 79.4006 54.2283 79.7078 54.3512 79.9535L54.2898 80.0456Z" fill="white"/>
<path d="M57.9173 76.2347C57.8252 75.774 57.8559 75.344 57.9787 74.9754C58.1016 74.5761 58.2859 74.2383 58.5009 73.9618C58.7466 73.6854 59.0231 73.4397 59.3916 73.2554C59.7909 73.0404 60.1595 72.9483 60.5588 72.8868C60.9581 72.8254 61.3267 72.8868 61.726 73.0404C62.0945 73.1633 62.4631 73.409 62.801 73.7161C63.1388 74.0233 63.4153 74.4533 63.6917 74.9754C63.9681 75.5283 64.1832 76.0505 64.2446 76.5112C64.306 76.9719 64.3367 77.4019 64.2139 77.7705C64.091 78.1391 63.9374 78.4769 63.6917 78.7534C63.446 79.0298 63.1388 79.2755 62.7703 79.4598C62.3403 79.7055 61.9103 79.8284 61.511 79.8591C61.1117 79.8898 60.7124 79.8284 60.3438 79.6441C59.9752 79.4598 59.6373 79.2141 59.3302 78.9069C59.0231 78.5998 58.7466 78.1698 58.4702 77.6783C58.1938 77.1562 58.0402 76.6648 57.948 76.204L57.9173 76.2347ZM60.6202 77.6169C60.7738 77.8319 60.9581 78.0162 61.1117 78.1698C61.2652 78.3234 61.4495 78.4155 61.6031 78.4462C61.7567 78.4769 61.9102 78.4462 62.0638 78.3848C62.2788 78.2926 62.4017 78.1391 62.4938 77.9855C62.586 77.8319 62.586 77.6476 62.5246 77.4633C62.4631 77.2483 62.4017 77.0333 62.2788 76.7569C62.156 76.4805 62.0331 76.204 61.8795 75.8969C61.726 75.6204 61.5724 75.3747 61.4188 75.129C61.2652 74.8833 61.1117 74.7297 60.9581 74.6069C60.8045 74.4533 60.6509 74.3918 60.4974 74.3611C60.3438 74.3611 60.1902 74.3611 60.0366 74.4226C59.8831 74.5147 59.7602 74.6376 59.6988 74.7604C59.6374 74.914 59.6066 75.0983 59.6373 75.3133C59.6373 75.5283 59.7295 75.774 59.7909 76.0197C59.8524 76.2655 59.9752 76.5112 60.1288 76.7876C60.2824 77.0948 60.4667 77.3712 60.6202 77.5862V77.6169Z" fill="white"/>
<path d="M63.7181 72.1496C63.7181 72.1496 63.7796 72.0882 63.8103 72.0267C63.8103 71.996 63.8717 71.9653 63.8717 71.9039C63.8717 71.8732 63.9331 71.8117 63.9331 71.781C63.9946 71.6582 64.056 71.5353 64.1174 71.4124C64.1788 71.2896 64.2403 71.1667 64.271 71.0132C64.3324 70.8903 64.3631 70.7367 64.3938 70.6139C64.4246 70.491 64.4553 70.3681 64.486 70.2146L65.7453 69.2317L69.8611 74.5146L68.3561 75.6818L65.3767 71.8425C65.3767 71.8425 65.3767 71.8732 65.3767 71.9039C65.3767 71.9039 65.3767 71.9346 65.3767 71.9653C65.3767 71.9653 65.3767 71.996 65.3767 72.0267C65.3767 72.0267 65.3767 72.0575 65.3767 72.0882C65.3767 72.0882 65.3767 72.0882 65.3767 72.1189C65.3767 72.1496 65.3767 72.1189 65.3767 72.1496C65.3767 72.1496 65.3767 72.1803 65.3767 72.211C65.3767 72.211 65.3767 72.211 65.3767 72.2725C65.346 72.3953 65.2846 72.4875 65.2539 72.6103C65.2232 72.7332 65.1617 72.8253 65.1003 72.9482C65.0389 73.071 64.9774 73.1632 64.916 73.2861C64.8546 73.3782 64.7624 73.5011 64.6703 73.5932L63.6874 72.3032C63.6874 72.3032 63.7488 72.2417 63.7796 72.211L63.7181 72.1496Z" fill="white"/>
<path d="M68.7218 34.0957V35.2936H68.9368V34.8329H69.3361L69.459 35.14V35.2322V35.2936H69.674V35.2322V35.14V35.0479L69.6125 34.8636L69.3975 34.7407L69.5818 34.6793L69.7047 34.4336L69.5204 34.1264H69.1825L68.7525 34.0957H68.7218ZM69.459 34.4643L69.3361 34.6486H69.1211H68.9368V34.2186H69.1211L69.3668 34.28L69.459 34.4643ZM70.2576 34.71C70.2576 34.4029 70.1654 34.1572 69.9504 33.9422C69.7354 33.7272 69.4897 33.635 69.1825 33.635C68.8754 33.635 68.6297 33.7272 68.4147 33.9422C68.1997 34.1572 68.1075 34.4029 68.1075 34.71C68.1075 35.0172 68.1997 35.2629 68.4147 35.4779C68.6297 35.6929 68.8754 35.8158 69.1825 35.8158C69.4897 35.8158 69.7354 35.7236 69.9504 35.4779C70.1654 35.2629 70.2576 35.0172 70.2576 34.71ZM69.1518 33.7579C69.3975 33.7579 69.6433 33.85 69.8275 34.0343C70.0118 34.2186 70.104 34.4336 70.104 34.71C70.104 34.9865 70.0118 35.2015 69.8275 35.3858C69.6433 35.57 69.4283 35.6622 69.1518 35.6622C68.8754 35.6622 68.6604 35.57 68.4761 35.3858C68.2918 35.2015 68.1997 34.9865 68.1997 34.71C68.1997 34.4336 68.2918 34.2186 68.4761 34.0343C68.6604 33.85 68.8754 33.7579 69.1518 33.7579Z" fill="#005941"/>
<path d="M37.92 38.9183C37.0907 39.0412 36.7836 39.2254 36.7836 40.239V45.2456C36.7836 46.167 36.5379 47.5799 35.8929 48.2863C35.125 49.1463 33.835 49.4228 32.9135 49.4228C32.2378 49.4228 30.8249 49.3306 29.842 48.4399C29.197 47.8563 28.7977 47.3035 28.7977 45.5834V40.3312C28.7977 39.0104 28.3984 38.9797 27.5691 38.8876V38.4883H32.5142V38.8876C31.5313 38.9183 31.0399 38.949 31.0399 40.3312V45.5834C31.0399 46.4742 31.1935 48.6549 33.3435 48.6549C35.985 48.6549 36.1079 46.2591 36.1079 45.2456V40.454C36.1079 39.5019 35.8314 38.949 34.5414 38.8876V38.4883H37.8586V38.8876" fill="#E03A3E"/>
<path d="M58.0688 41.531C57.7923 40.4252 56.9937 38.6131 55.2123 38.6131C54.4137 38.6131 53.5844 39.0738 53.5844 40.1181C53.5844 40.9781 53.8608 41.316 55.1508 41.9917L57.3623 43.1589C57.8845 43.4353 59.0209 44.1417 59.0209 45.8925C59.0209 47.2747 58.0688 48.964 55.2737 48.964C53.8301 48.964 53.308 48.4111 52.8472 48.4111C52.5401 48.4111 52.4479 48.6875 52.3865 48.964H51.9565L50.3286 45.0632H50.6358C51.0351 46.2611 53.1237 48.4418 55.3351 48.4418C57.1473 48.4418 57.2087 46.8754 57.2087 46.6604C57.2087 45.6161 56.5023 45.4011 55.5194 44.9096L54.5058 44.4182C51.9258 43.1282 51.9258 41.9917 51.9258 41.2853C51.9258 40.3331 52.3865 38.1831 55.243 38.1831C56.4409 38.1831 56.4716 38.6438 56.9016 38.6438C57.3316 38.6438 57.4852 38.1831 57.5159 38.1523H57.7616L58.2531 41.5924H58.0381" fill="#E03A3E"/>
<path d="M44.0899 48.9306H39.9741V48.6541C40.6191 48.562 41.0799 48.5005 41.0799 47.5791V40.2075C41.0799 39.1939 40.527 39.1632 39.9741 39.1325V38.6104H42.9842V47.487C42.9842 48.4698 43.4756 48.5005 44.1206 48.562V48.9613" fill="#E03A3E"/>
<path d="M43.4472 38.5788C43.4472 38.5788 47.6244 38.1795 47.6244 41.2203C47.6244 42.2032 47.6244 42.8175 45.9044 43.6468C45.9044 43.6468 48.0852 45.7047 49.5288 48.1311C51.0645 50.7726 54.781 56.9156 63.4119 59.3113C63.4119 59.3113 56.7468 61.2771 49.8359 52.7076C47.5937 50.0662 45.6587 44.9368 43.4165 44.1382V43.8925C43.4165 43.8925 45.628 44.1382 45.628 41.251C45.628 38.6095 43.4165 38.9781 43.4165 38.9781V38.6095" fill="#E03A3E"/>
<path d="M71.7041 43.8324C71.7041 37.4129 59.3567 32.1914 44.1528 32.1914C28.9489 32.1914 16.6016 37.4129 16.6016 43.8324C16.6016 50.2518 28.9489 55.4733 44.1528 55.4733C46.2107 55.4733 48.1765 55.3811 50.1115 55.1969L49.3129 54.1833C47.6236 54.3676 45.9036 54.4597 44.0914 54.4597C31.2833 54.4597 20.9016 49.6989 20.9016 43.8016C20.9016 37.9044 31.2833 33.1436 44.0914 33.1436C56.8995 33.1436 67.2811 37.9044 67.2811 43.8016C67.2811 47.7946 62.4589 51.2961 55.333 53.1082L56.3773 54.2447C65.4689 52.3404 71.7041 48.4089 71.7041 43.8324Z" fill="#005941"/>
<path d="M6.31324 56.8828L9.53831 55.5928C10.214 55.3471 10.7669 55.5314 11.0433 56.2071C11.3198 56.8828 11.0433 57.405 10.3676 57.6814L7.14255 58.9715L7.72613 60.4151L11.0126 59.0943C12.4562 58.5107 12.5791 57.1286 12.0569 55.8078C11.5348 54.4871 10.4905 53.5656 9.04687 54.1185L5.76038 55.4392L6.34396 56.8828H6.31324Z" fill="white"/>
<path d="M10.6424 52.3387L10.3659 50.9566L6.15799 51.7859V51.7551L10.0281 49.0829L9.59806 46.9636L4.1001 48.0386L4.37653 49.3901L8.46161 48.6222L4.7144 51.2637L5.1444 53.383L10.6424 52.3387Z" fill="white"/>
<path d="M9.52424 44.3977L3.94397 44.7292L4.03505 46.2623L9.61532 45.9308L9.52424 44.3977Z" fill="white"/>
<path d="M9.50678 42.11L9.59892 40.5743L5.08383 40.3285L5.17598 38.5778L4.10096 38.5164L3.82452 43.5229L4.89955 43.5843L4.99169 41.8643L9.50678 42.11Z" fill="white"/>
<path d="M10.674 34.0027L9.59894 33.7877L9.04607 36.4291L7.87891 36.1834L8.40106 33.7569L7.32604 33.5419L6.8346 35.9684L5.69815 35.7534L6.25102 33.0812L5.176 32.8662L4.31598 37.0434L9.81394 38.1799L10.674 34.0027Z" fill="white"/>
<path d="M7.23247 30.0703L7.50891 29.3946C7.81606 28.596 8.61465 28.0738 9.68967 28.4731C10.7647 28.9031 10.9797 29.8246 10.7033 30.6232L10.4268 31.2989L7.23247 30.0703ZM5.66602 31.1146L10.8568 33.1418L11.7168 30.9303C12.4233 29.1489 12.2083 27.7053 10.2732 26.9374C8.33821 26.2002 7.20176 27.091 6.52603 28.8724L5.66602 31.0839V31.1146Z" fill="white"/>
<path d="M13.8069 22.4209L14.1447 21.9601C14.6055 21.3151 14.8512 21.4687 15.4348 21.8066C15.7726 21.9908 16.1412 22.2059 16.5098 22.3594L17.4927 21.008C17.0627 20.8544 16.6327 20.6701 16.2334 20.4244C15.4655 19.9944 14.9433 19.8408 14.3597 20.6394C14.7283 19.933 14.759 19.1651 14.0833 18.6736C13.1312 17.9672 12.2097 18.8272 11.6261 19.5951L10.1211 21.6837L14.6669 24.9702L15.5883 23.7109L13.8376 22.4516L13.8069 22.4209ZM12.9161 21.7758L11.8718 21.008L12.2404 20.5165C12.5169 20.1172 12.8547 19.7794 13.3462 20.0865C13.8069 20.4244 13.5919 20.8544 13.2847 21.2537L12.9469 21.7451L12.9161 21.7758Z" fill="white"/>
<path d="M20.9928 17.3846L20.2249 16.6475L18.3206 18.5518L17.4606 17.7225L19.242 15.941L18.4435 15.1732L16.6927 16.9546L15.8941 16.156L17.7984 14.221L17.0306 13.4531L14.0205 16.4939L17.9827 20.4254L20.9928 17.3846Z" fill="white"/>
<path d="M24.1553 13.6691C24.0017 13.8534 23.7867 14.0377 23.541 14.222C22.6503 14.867 21.7595 14.6213 21.1145 13.6998C20.5924 12.9627 20.3466 12.0105 21.2067 11.3962C21.6367 11.0891 22.0667 10.9662 22.4353 11.3962L23.6946 10.5055C22.7117 9.18473 21.4524 9.86046 20.3774 10.6898C18.9952 11.7648 18.7802 13.2698 19.7938 14.7134C20.8074 16.1263 22.3431 16.4027 23.7867 15.4506C24.8924 14.652 25.0153 14.437 25.906 13.5462L24.1553 11.1198L21.9745 12.6862L22.6195 13.577L23.541 12.9012L24.1553 13.7305V13.6691Z" fill="white"/>
<path d="M25.7325 7.49415L24.3774 8.2168L27.0079 13.1494L28.363 12.4267L25.7325 7.49415Z" fill="white"/>
<path d="M32.0814 6.60499C31.6821 5.31497 30.4228 5.3764 29.3477 5.77569C28.2727 6.2057 27.3206 6.97357 27.7199 8.20217C27.9349 8.75503 28.3956 9.12361 29.0099 9.15433C30.3306 9.21576 31.3442 8.63217 31.6206 9.33862C31.7435 9.67648 31.4056 10.0143 31.0678 10.1679C30.5456 10.3829 30.0849 10.2293 29.9006 9.73791L28.457 10.2908C29.0406 11.7037 30.2385 11.6422 31.4364 11.1508C32.6342 10.6901 33.525 9.73791 33.095 8.63217C32.5421 7.21929 31.2521 7.6493 30.2692 7.74144C29.8392 7.80287 29.3477 7.83359 29.1942 7.46501C29.102 7.21929 29.2863 6.88143 29.6242 6.75857C29.8699 6.66642 30.0849 6.63571 30.2385 6.69714C30.4228 6.75857 30.5456 6.88143 30.6071 7.09643L32.0507 6.54356L32.0814 6.60499Z" fill="white"/>
<path d="M35.7695 9.70787L37.3053 9.37001L36.3224 4.97778L38.0424 4.6092L37.8274 3.53418L32.9131 4.6092L33.1588 5.65351L34.8174 5.31564L35.7695 9.70787Z" fill="white"/>
<path d="M40.9849 6.72648H41.5685C42.3671 6.63433 42.3978 6.91076 42.5207 7.58649C42.5821 7.98579 42.6435 8.38508 42.7664 8.75366L44.425 8.66151C44.2714 8.2315 44.1486 7.8015 44.0871 7.34077C43.9336 6.48076 43.7186 5.98932 42.7357 6.02003C43.5035 5.83574 44.1178 5.37502 44.0871 4.54572C44.0257 3.37855 42.7664 3.19426 41.8449 3.22498L39.2649 3.37855L39.6028 8.96866L41.1385 8.87652L41.0156 6.75719L40.9849 6.72648ZM40.9235 5.65145L40.8621 4.36143H41.4764C41.9678 4.3 42.4592 4.36143 42.49 4.9143C42.5207 5.49788 42.0599 5.59002 41.5378 5.62074H40.9235V5.65145Z" fill="white"/>
<path d="M47.2857 6.72727L48.2993 4.5158L48.7293 6.91156L47.255 6.72727H47.2857ZM46.2721 8.81588L46.7636 7.77158L49.0057 8.0173L49.2515 9.15375L51.0022 9.36875L49.4665 3.56364L47.5929 3.34863L44.7671 8.66231L46.3028 8.8466L46.2721 8.81588Z" fill="white"/>
<path d="M53.6701 7.92593L54.223 8.0795C54.9908 8.29451 54.9294 8.57094 54.8066 9.24667C54.7451 9.64596 54.653 10.0453 54.6223 10.4445L56.2194 10.936C56.2194 10.4753 56.2809 10.0145 56.373 9.55382C56.5266 8.6938 56.4959 8.17165 55.5437 7.8645C56.3116 7.95664 57.0795 7.74164 57.2945 6.91234C57.6323 5.77589 56.5266 5.1923 55.6359 4.91587L53.148 4.17871L51.5508 9.55382L53.0251 9.98382L53.6394 7.92593H53.6701ZM53.9773 6.88162L54.3458 5.65303L54.9294 5.83731C55.4209 5.99089 55.8509 6.17518 55.6973 6.72805C55.5437 7.28091 55.0523 7.21948 54.5916 7.06591L54.008 6.88162H53.9773Z" fill="white"/>
<path d="M61.5701 13.7592C63.1673 14.7113 64.6109 14.3427 65.5631 12.7456C66.5152 11.1791 66.1774 9.70479 64.5802 8.75263C62.983 7.80047 61.5394 8.16905 60.5872 9.76622C59.6351 11.3327 59.9729 12.807 61.5701 13.7592ZM64.1502 11.947C63.7202 12.6534 63.0444 13.3906 62.123 12.8377C61.2323 12.2848 61.5394 11.3327 61.9694 10.6262C62.4301 9.88908 63.1059 9.15192 64.0273 9.70479C64.918 10.2577 64.6109 11.2098 64.1502 11.947Z" fill="white"/>
<path d="M67.3112 15.1131L69.0312 16.5567L69.7376 15.7274L68.0176 14.2838L68.8776 13.3009L70.7205 14.8366L71.3963 14.0073L68.3862 11.458L64.7618 15.7274L65.929 16.741L67.3112 15.1131Z" fill="white"/>
<path d="M76.0041 22.0218C77.1405 21.2846 76.772 20.0867 76.0655 19.1653C75.3591 18.2131 74.3762 17.5067 73.2705 18.2438C72.779 18.6124 72.5333 19.1346 72.6869 19.7489C72.994 21.0389 73.7926 21.8682 73.209 22.3289C72.9019 22.5439 72.5026 22.2982 72.2876 22.0218C71.9497 21.561 71.9497 21.1003 72.3797 20.7932L71.4583 19.5646C70.2604 20.486 70.629 21.6532 71.4276 22.6975C72.1954 23.7418 73.3319 24.3254 74.284 23.6189C75.4819 22.7282 74.7448 21.561 74.3762 20.6703C74.2226 20.271 74.0383 19.8103 74.3762 19.5646C74.5912 19.411 74.9598 19.5031 75.1748 19.7796C75.3283 19.9946 75.4205 20.1789 75.3898 20.3631C75.3898 20.5474 75.2976 20.701 75.1133 20.8239L76.0348 22.0525L76.0041 22.0218Z" fill="white"/>
<path d="M74.1909 26.7828L74.8973 28.1342L76.7095 27.2128L80.856 27.5506L80.1495 26.1377L77.4773 26.0763L79.0131 23.9263L78.1838 22.3291L76.003 25.8306L74.1909 26.7828Z" fill="white"/>
<path d="M81.1951 33.8156C82.5158 33.5085 82.5465 32.2492 82.2087 31.1434C81.8708 30.0377 81.1643 29.0241 79.8743 29.362C79.2907 29.5462 78.8914 29.9762 78.83 30.5905C78.6764 31.9113 79.1679 32.9556 78.4614 33.2013C78.1236 33.3242 77.7857 32.9249 77.6936 32.587C77.5093 32.0649 77.6936 31.6041 78.185 31.4506L77.7243 29.9762C76.2807 30.4677 76.25 31.6656 76.6493 32.8942C77.0485 34.1228 77.9086 35.0749 79.045 34.7063C80.4886 34.2456 80.1815 32.9249 80.12 31.942C80.12 31.512 80.0893 30.9898 80.4579 30.867C80.7343 30.7748 81.0415 31.0206 81.1336 31.3584C81.2258 31.6041 81.2258 31.8191 81.1336 31.9727C81.0722 32.1263 80.9186 32.2492 80.7036 32.3106L81.1643 33.7849L81.1951 33.8156Z" fill="white"/>
<path d="M77.8145 37.2882L78.0602 38.8239L82.5138 38.1482L82.7596 39.8989L83.8346 39.7453L83.0974 34.7695L82.0224 34.9231L82.2988 36.6124L77.8145 37.2882Z" fill="white"/>
<path d="M78.2764 45.4584L79.3514 45.4891L79.4128 42.7862H80.58L80.5493 45.3048H81.6243L81.6857 42.8169L82.8222 42.8476L82.7915 45.5505L83.8665 45.5812L83.9279 41.3119L78.3378 41.2197L78.2764 45.4584Z" fill="white"/>
<path d="M78.0605 47.6694L82.6985 48.5601L82.7292 48.5908L77.8455 48.898L77.5691 50.2801L81.9613 52.4302L81.9306 52.4609L77.3234 51.5702L77.0776 52.8909L82.5756 53.9659L83.0363 51.6009L79.4734 50.0037L83.3742 49.8194L83.8349 47.3929L78.3369 46.3486L78.0605 47.6694Z" fill="white"/>
<path d="M78.6146 59.6478C79.8432 60.2314 80.6418 59.3099 81.1025 58.2349C81.5325 57.1599 81.6554 55.9313 80.4268 55.3784C79.8739 55.1634 79.2903 55.2249 78.8296 55.6549C77.8775 56.5763 77.601 57.7128 76.8946 57.4363C76.5567 57.2828 76.5567 56.7913 76.6796 56.4842C76.8946 55.962 77.2939 55.7163 77.7853 55.9313L78.3689 54.4877C76.956 53.9348 76.1574 54.8563 75.666 56.0542C75.1746 57.252 75.2667 58.5421 76.3417 58.9721C77.7546 59.5557 78.3382 58.3271 78.9218 57.5285C79.1675 57.1906 79.4746 56.7913 79.8739 56.9449C80.1196 57.037 80.2425 57.4363 80.0889 57.7435C79.9968 57.9892 79.8432 58.1428 79.6896 58.2349C79.5361 58.3271 79.3518 58.3271 79.1675 58.2349L78.5839 59.6785L78.6146 59.6478Z" fill="white"/>
<path d="M15.9237 67.85C16.5687 67.2357 16.5687 66.2221 15.9237 65.6078C15.3094 64.9628 14.3265 64.9628 13.6815 65.5771C13.0365 66.1914 13.0365 67.205 13.6508 67.8193C14.2651 68.4643 15.2787 68.4643 15.893 67.85H15.9237Z" fill="white"/>
<path d="M73.9426 65.5466C73.2976 64.9324 72.3148 64.9631 71.7005 65.6081C71.0862 66.2531 71.1169 67.236 71.7619 67.8503C72.4069 68.4646 73.3898 68.4338 74.0041 67.7888C74.6184 67.1438 74.5877 66.1302 73.9426 65.5466Z" fill="white"/>
<defs>
<radialGradient id="paint0_radial_1_1752" cx="0" cy="0" r="1" gradientUnits="userSpaceOnUse" gradientTransform="translate(35.3879 26.3162) scale(19.9309)">
<stop stop-color="white"/>
<stop offset="0.25" stop-color="white"/>
<stop offset="0.44" stop-color="#FAFBFB"/>
<stop offset="0.65" stop-color="#EBF2F0"/>
<stop offset="0.88" stop-color="#D4E3DF"/>
<stop offset="1" stop-color="#C5DAD4"/>
</radialGradient>
</defs>
</svg>
